<svg xmlns="http://www.w3.org/2000/svg" xmlns:xlink="http://www.w3.org/1999/xlink" width="107.306" height="75.975" viewBox="0 0 107.306 75.975">
  <defs>
    <clipPath id="clip-path">
      <rect id="Rectangle_145" data-name="Rectangle 145" width="107.306" height="75.975" fill="none"/>
    </clipPath>
  </defs>
  <g id="Groupe_331" data-name="Groupe 331" transform="translate(0 0)">
    <g id="Groupe_227" data-name="Groupe 227" transform="translate(0 0)" clip-path="url(#clip-path)">
      <path id="Tracé_267" data-name="Tracé 267" d="M67.693,0A25.941,25.941,0,0,0,41.782,25.784a25.866,25.866,0,0,0,.675,5.739c.076.339.176.675.264,1.009a2.233,2.233,0,0,0,2.161,1.652,5.723,5.723,0,0,0,4.834-2.661L61.007,13.687a2.833,2.833,0,0,1,2.2-1.342,2.729,2.729,0,0,1,2.483,1.272l5.9,9.312-5.364,4.359a1.284,1.284,0,1,0,1.619,1.993l5.49-4.461,1.482-1.183a2.743,2.743,0,0,1,3.74.3l6.911,7.59.72.792a5.726,5.726,0,0,0,4.232,1.869H90.5a2.232,2.232,0,0,0,2.16-1.651c.088-.335.189-.671.265-1.011a25.827,25.827,0,0,0,.674-5.739A25.941,25.941,0,0,0,67.693,0" transform="translate(-14.04 0)" fill="#d4d4bb"/>
      <path id="Tracé_268" data-name="Tracé 268" d="M106.093,55.47a15.884,15.884,0,0,1-6.645,1.537c-7.1-.018-14.38-5.675-20.5-1.811,7.707-1.352,12.991,4.253,20.575,3.331a11.85,11.85,0,0,0,6.566-3.057" transform="translate(-26.53 -18.094)" fill="#d4d4bb"/>
      <path id="Tracé_269" data-name="Tracé 269" d="M85.557,60.563c-6.037.288-10.138-1.214-14.732-3.035-3.924-1.257-8.763-1.75-11.857,1.242,3.236-1.358,6.774-.874,9.738.064,2.7.951,9.926,4.674,16.85,1.73" transform="translate(-19.815 -19)" fill="#d4d4bb"/>
      <path id="Tracé_270" data-name="Tracé 270" d="M2.333,65.9a2.4,2.4,0,0,1,.561.224q.471.225,1.144.471t1.481.471a5.835,5.835,0,0,0,1.57.224,40.1,40.1,0,0,0,6.394-.426A31.6,31.6,0,0,0,17.7,65.92a16.755,16.755,0,0,0,2.468-.942,3.145,3.145,0,0,1,1.189-.426,1.109,1.109,0,0,1,.92.426,3.293,3.293,0,0,1,.516.92,7.756,7.756,0,0,1,.27,1.3q0,.225-.808,1.121t-2.109,2.311q-1.3,1.413-2.984,3.253t-3.41,3.881q-1.728,2.043-3.41,4.2A48.989,48.989,0,0,0,7.359,86.2,28.76,28.76,0,0,0,5.25,90.195a8.937,8.937,0,0,0-.808,3.433,15.377,15.377,0,0,1,1.817-.942,20.546,20.546,0,0,1,2.535-.92,23.757,23.757,0,0,1,3.253-.7,27.539,27.539,0,0,1,4.016-.27,3.266,3.266,0,0,1,1.772.494,5.08,5.08,0,0,1,1.324,1.189,5.752,5.752,0,0,1,.83,1.458,3.775,3.775,0,0,1,.291,1.3.318.318,0,0,1-.224.314.4.4,0,0,1-.179.044,1.921,1.921,0,0,1-.471-.157q-.381-.156-.965-.359T17.118,94.7a6.761,6.761,0,0,0-1.593-.18,31.986,31.986,0,0,0-6.327.494A16.407,16.407,0,0,0,5.654,96.1a4.1,4.1,0,0,0-1.884,1.57,2.711,2.711,0,0,1-1.347-.382,6.532,6.532,0,0,1-1.211-.874A8.437,8.437,0,0,1,0,95.108,12.971,12.971,0,0,1,.807,90.8a30.837,30.837,0,0,1,2.109-4.644A44.492,44.492,0,0,1,5.9,81.49q1.683-2.311,3.433-4.419a113.185,113.185,0,0,1,9.333-9.827,28.361,28.361,0,0,1-3.993,1.391A41.336,41.336,0,0,1,10.5,69.6a26.863,26.863,0,0,1-4.846.426,4.834,4.834,0,0,1-1.773-.291,3.5,3.5,0,0,1-1.211-.763A3.032,3.032,0,0,1,1.75,66.8a1.312,1.312,0,0,1,.157-.584.476.476,0,0,1,.426-.314" transform="translate(0 -21.691)" fill="#6b702b"/>
      <path id="Tracé_271" data-name="Tracé 271" d="M38.448,94.5a31.829,31.829,0,0,1-1.862,2.872,18.911,18.911,0,0,1-2.446,2.782,14.291,14.291,0,0,1-2.848,2.086,6.368,6.368,0,0,1-3.119.83,4.069,4.069,0,0,1-2.4-.65,4.708,4.708,0,0,1-1.436-1.593,6.808,6.808,0,0,1-.718-2.019,10.762,10.762,0,0,1-.2-1.975,10.546,10.546,0,0,1,.919-4.375,13.745,13.745,0,0,1,2.289-3.567,12.309,12.309,0,0,1,2.894-2.423,5.536,5.536,0,0,1,2.738-.9,4.658,4.658,0,0,1,2.063.382,3.021,3.021,0,0,1,1.145.92,2.891,2.891,0,0,1,.493,1.144,5.93,5.93,0,0,1,.112,1.054,5.2,5.2,0,0,1-.83,2.894,8.036,8.036,0,0,1-2.131,2.2,9.79,9.79,0,0,1-2.895,1.391,10.964,10.964,0,0,1-3.119.471,9.793,9.793,0,0,0-.157,1.525,4.689,4.689,0,0,0,.179,1.481,2.43,2.43,0,0,0,.7,1.121,2.064,2.064,0,0,0,1.436.449,5.687,5.687,0,0,0,2.535-.606,12.157,12.157,0,0,0,2.355-1.525A13.993,13.993,0,0,0,36.181,96.4q.919-1.144,1.637-2.221Zm-5.565-7.538a2.392,2.392,0,0,0-1.592.785,11.187,11.187,0,0,0-1.616,1.974,18.536,18.536,0,0,0-1.414,2.58,15.846,15.846,0,0,0-.942,2.647,6.365,6.365,0,0,0,2.424-.494,8.537,8.537,0,0,0,2.2-1.3,6.731,6.731,0,0,0,1.592-1.862,4.385,4.385,0,0,0,.606-2.221,6.3,6.3,0,0,0-.044-.7,2.584,2.584,0,0,0-.18-.7,1.344,1.344,0,0,0-.382-.516,1,1,0,0,0-.651-.2" transform="translate(-7.868 -28.753)" fill="#6b702b"/>
      <path id="Tracé_272" data-name="Tracé 272" d="M68.316,96.945a21.1,21.1,0,0,1-1.907,2.647,14.3,14.3,0,0,1-2.289,2.2,4,4,0,0,1-2.423.92,4.252,4.252,0,0,1-2.311-.606,2.549,2.549,0,0,1-1.009-2.265,6.732,6.732,0,0,1,.493-2.356q.539-1.548,1.211-3.186t1.257-3.074a8,8,0,0,0,.628-2.064,1.718,1.718,0,0,1,.023-.2,1.3,1.3,0,0,0,0-.337.494.494,0,0,0-.18-.314.71.71,0,0,0-.471-.134,3.172,3.172,0,0,0-1.907.785,13.547,13.547,0,0,0-2,1.952q-.36,1.077-.874,2.288t-1.01,2.378q-.225.584-.628,1.57T54.2,99.166a13.768,13.768,0,0,0-.449,1.907,1.521,1.521,0,0,0,.179,1.234,2.146,2.146,0,0,1-.92.359,3.45,3.45,0,0,1-1.234.045,2.045,2.045,0,0,1-1.077-.538,2.241,2.241,0,0,1-.449-1.75,9.093,9.093,0,0,1,.628-2.333q.583-1.57,1.346-3.321.718-1.794,1.347-3.388a12.023,12.023,0,0,0,.718-2.221c0-.029-.008-.1-.023-.224a1.12,1.12,0,0,0-.112-.359.83.83,0,0,0-.291-.314.914.914,0,0,0-.516-.135,3.289,3.289,0,0,0-2.086.942,18.317,18.317,0,0,0-2.177,2.244l-3.275,9.108a3.136,3.136,0,0,0-.224.965,1.508,1.508,0,0,0,.09.561.786.786,0,0,0,.314.314,1.8,1.8,0,0,1-.875.359,3.449,3.449,0,0,1-1.234.044,2.25,2.25,0,0,1-1.1-.516,2.278,2.278,0,0,1-.516-1.772,6.107,6.107,0,0,1,.291-1.548q.293-1.009.718-2.265t.92-2.58q.493-1.323.965-2.491t.807-2.041q.337-.875.426-1.189a4.389,4.389,0,0,0,.157-.9c.015-.269.023-.493.023-.673-.031-.208-.06-.4-.09-.583h3.769a.576.576,0,0,1,.449.2.452.452,0,0,1,.09.471l-.807,2.109a14.7,14.7,0,0,1,2.378-1.952,4.493,4.493,0,0,1,2.468-.785,3.27,3.27,0,0,1,2.109.762,2.557,2.557,0,0,1,.987,1.975,13.742,13.742,0,0,1,2.423-1.952,4.708,4.708,0,0,1,2.512-.785,3.743,3.743,0,0,1,1.189.2,2.486,2.486,0,0,1,1.032.65,2.56,2.56,0,0,1,.606,1.122,3.519,3.519,0,0,1-.045,1.66,12.811,12.811,0,0,1-.606,1.952q-.427,1.1-.92,2.244T63.178,96.2q-.448,1.077-.718,1.952a4.381,4.381,0,0,0-.247,1.391.469.469,0,0,0,.517.516,3.116,3.116,0,0,0,1.795-.628,10.826,10.826,0,0,0,1.727-1.526,19.66,19.66,0,0,0,1.526-1.862q.7-.964,1.189-1.683l.628.314q-.449.9-1.279,2.266" transform="translate(-14.203 -28.935)" fill="#6b702b"/>
      <path id="Tracé_273" data-name="Tracé 273" d="M96.341,85.709a13.4,13.4,0,0,1-.22,3.68,10.743,10.743,0,0,1-1.1,3.006,5.261,5.261,0,0,0,2.224-.987,7.838,7.838,0,0,0,2.018-2.244l.583.4a9.26,9.26,0,0,1-2.776,3.1,7.046,7.046,0,0,1-2.946,1.121,9.609,9.609,0,0,1-3.186,2.782,7.43,7.43,0,0,1-3.455.942,3.657,3.657,0,0,1-1.076-.179,3.408,3.408,0,0,1-1.122-.606,4.12,4.12,0,0,1-.965-1.144,4.681,4.681,0,0,1-.56-1.84l-.538,1.481a3.133,3.133,0,0,0-.224.965,1.5,1.5,0,0,0,.09.56.779.779,0,0,0,.314.315,1.792,1.792,0,0,1-.875.359,3.45,3.45,0,0,1-1.234.045,2.171,2.171,0,0,1-1.1-.538,2.285,2.285,0,0,1-.516-1.75,10.314,10.314,0,0,1,.561-2.311q.562-1.772,1.413-4.173t1.885-5.048Q84.562,81,85.437,78.688t1.5-3.949q.627-1.637.718-1.952a3.636,3.636,0,0,0,.179-1.525c-.03-.209-.06-.419-.09-.629h3.814a.515.515,0,0,1,.4.224.429.429,0,0,1,.09.449L87.7,83.017a8.544,8.544,0,0,1,2.2-1.548,5.631,5.631,0,0,1,2.467-.56A3.264,3.264,0,0,1,95.142,82.3a6.607,6.607,0,0,1,1.2,3.41m-8.48,8.974a2.5,2.5,0,0,0,1.414-.471,7.323,7.323,0,0,0,1.368-1.234.986.986,0,0,1-.314-.718,1.3,1.3,0,0,1,.179-.7,1.037,1.037,0,0,1,.538-.426.978.978,0,0,1,.763.045,14.673,14.673,0,0,0,1.234-2.849,10.554,10.554,0,0,0,.516-2.759A5.326,5.326,0,0,0,93.447,84a2.536,2.536,0,0,0-.4-.9,1.237,1.237,0,0,0-.583-.426,3.783,3.783,0,0,0-.651-.157,2.749,2.749,0,0,0-1.548.314,6.743,6.743,0,0,0-1.66,1.189,11.169,11.169,0,0,0-1.593,1.93,12.611,12.611,0,0,0-1.3,2.58L85.349,89.7a1.049,1.049,0,0,1,.628-.471,1.489,1.489,0,0,1,.763-.023.471.471,0,0,1,.314.18.144.144,0,0,1-.045.224,2.839,2.839,0,0,0-.83,1.3,4.415,4.415,0,0,0-.247,1.683,2.7,2.7,0,0,0,.494,1.458,1.641,1.641,0,0,0,1.436.628" transform="translate(-26.771 -23.734)" fill="#6b702b"/>
      <path id="Tracé_274" data-name="Tracé 274" d="M109.144,92.07l-.09-.135a18.879,18.879,0,0,0,1.234-2.737,15.635,15.635,0,0,0,.74-2.872,3.724,3.724,0,0,1-1.121-.628,2.6,2.6,0,0,1-.763-1.077,5.708,5.708,0,0,1-.449-2.311,4.481,4.481,0,0,1,.426-1.817,3.216,3.216,0,0,1,.965-1.189,1.922,1.922,0,0,1,1.122-.426,4.3,4.3,0,0,1,1.032.112,3.973,3.973,0,0,1,.807.291,2.212,2.212,0,0,1,.673.448,18.733,18.733,0,0,0-1.256,2.731,5.972,5.972,0,0,0-.27.985,2.462,2.462,0,0,0-.022.873.973.973,0,0,0,.336.6,1.161,1.161,0,0,0,.763.224,10.59,10.59,0,0,0,2.356-.224,9.666,9.666,0,0,0,1.593-.492,3.63,3.63,0,0,0,1.121-.716,1.988,1.988,0,0,1,.987.358,2.7,2.7,0,0,1,.673.806,3.049,3.049,0,0,1,.314,1.522,5.493,5.493,0,0,1-.4,1.813q-.4,1.1-.943,2.328L117.894,93a22.962,22.962,0,0,0-.853,2.216,4.077,4.077,0,0,0-.247,1.611c.045.418.306.627.785.627a3.4,3.4,0,0,0,1.839-.606,11.572,11.572,0,0,0,1.817-1.458,15.192,15.192,0,0,0,1.593-1.817q.717-.964,1.212-1.683l.628.314a24.446,24.446,0,0,1-1.458,2.468,18.928,18.928,0,0,1-2.109,2.634,13.647,13.647,0,0,1-2.557,2.109,5.253,5.253,0,0,1-2.85.866,3,3,0,0,1-2.558-.92,3.391,3.391,0,0,1-.606-2.243,8.76,8.76,0,0,1,.606-2.715q.539-1.39.987-2.333.583-1.211.92-2.042t.517-1.391a5.448,5.448,0,0,0,.224-.92,1.924,1.924,0,0,0,0-.583.517.517,0,0,0-.4-.494,1.352,1.352,0,0,0-.314-.044,4.146,4.146,0,0,1-.9.09,6.951,6.951,0,0,1-2.019-.135,28.188,28.188,0,0,1-1.1,2.917q-.651,1.48-1.414,2.871Z" transform="translate(-36.523 -26.505)" fill="#6b702b"/>
      <path id="Tracé_275" data-name="Tracé 275" d="M144.749,100.2a2.851,2.851,0,0,0,1.683-.651,10.926,10.926,0,0,0,1.683-1.57,20.917,20.917,0,0,0,1.5-1.93l1.189-1.728.628.314q-.494.9-1.3,2.266a19.457,19.457,0,0,1-1.885,2.647,13.826,13.826,0,0,1-2.311,2.2,4.144,4.144,0,0,1-2.49.92,4.85,4.85,0,0,1-.987-.112,3.083,3.083,0,0,1-1.01-.4,2.376,2.376,0,0,1-.785-.807,2.607,2.607,0,0,1-.314-1.368,6.452,6.452,0,0,1-1.885,1.839,4.033,4.033,0,0,1-2.153.673,4.938,4.938,0,0,1-2.064-.426,4.718,4.718,0,0,1-1.615-1.189,5.036,5.036,0,0,1-1.009-1.795,6.419,6.419,0,0,1-.291-2.244,15.894,15.894,0,0,1,.9-4.779,10.491,10.491,0,0,1,1.975-3.388,8.1,8.1,0,0,1,2.714-2.019,7.549,7.549,0,0,1,3.119-.673,3.315,3.315,0,0,1,1.009.2,3.529,3.529,0,0,1,1.144.65,4.264,4.264,0,0,1,.943,1.145,3.3,3.3,0,0,1,.4,1.683l.493-1.481a4.423,4.423,0,0,0,.157-.853q.022-.359.022-.673l-.09-.628,3.769.045a.512.512,0,0,1,.426.2.409.409,0,0,1,.067.426L144.57,97.236a7.368,7.368,0,0,0-.426,2.086q-.023.874.606.875m-7.717.179a2.514,2.514,0,0,0,1.705-.673,6.665,6.665,0,0,0,1.346-1.683,15.441,15.441,0,0,0,1.032-2.176q.447-1.166.807-2.109a9.251,9.251,0,0,0,.449-2.647,5.486,5.486,0,0,0-.314-1.975,3,3,0,0,0-.785-1.212,1.479,1.479,0,0,0-.965-.4,3.457,3.457,0,0,0-2.064.718,6.491,6.491,0,0,0-1.728,1.951,11.259,11.259,0,0,0-1.189,2.939,14.6,14.6,0,0,0-.449,3.724,7.139,7.139,0,0,0,.2,1.907,2.779,2.779,0,0,0,.516,1.055,1.477,1.477,0,0,0,.7.471,2.6,2.6,0,0,0,.74.112" transform="translate(-44.129 -28.889)" fill="#6b702b"/>
      <path id="Tracé_276" data-name="Tracé 276" d="M132.922,71.876a.4.4,0,0,0,.12-.02.4.4,0,0,1-.12.02.562.562,0,0,1-.223-.048.562.562,0,0,0,.223.048" transform="translate(-44.59 -24.136)" fill="#6b702b"/>
      <path id="Tracé_277" data-name="Tracé 277" d="M123.793,71.778a2.291,2.291,0,0,0-.419-.355,7.987,7.987,0,0,0,1.462-.925,7.7,7.7,0,0,0,.612-.577,4.726,4.726,0,0,0,.551-.7,4.264,4.264,0,0,0,.412-.837,3.174,3.174,0,0,0,.183-.985,2.621,2.621,0,0,0-.234-1.177,2.538,2.538,0,0,0-.753-.936,3.673,3.673,0,0,0-1.2-.6,5.307,5.307,0,0,0-1.544-.212,7.96,7.96,0,0,0-2.278.3,7.263,7.263,0,0,0-1.754.771,5.747,5.747,0,0,0-1.287,1.074,7.11,7.11,0,0,0-.861,1.193,4.794,4.794,0,0,0-.474,1.136,3.189,3.189,0,0,0-.123.912,1.1,1.1,0,0,0,.217.667,1.35,1.35,0,0,0,.462.366,1.608,1.608,0,0,0,.559.155c.183.016.353.025.5.025a.3.3,0,0,0,.268-.153.279.279,0,0,0,.007-.293,1.336,1.336,0,0,1-.175-.722,3.84,3.84,0,0,1,.2-1.262,4.438,4.438,0,0,1,.521-1.05,5.046,5.046,0,0,1,.71-.834,5.717,5.717,0,0,1,.758-.61,4.006,4.006,0,0,1,.666-.365,1.778,1.778,0,0,1,.343-.11.354.354,0,0,1,.008.053,3.645,3.645,0,0,1-.008.39,3.938,3.938,0,0,1-.241.948c-.153.436-.345.939-.572,1.494s-.478,1.159-.733,1.77-.505,1.219-.735,1.8-.42,1.1-.569,1.571a3.943,3.943,0,0,0-.228,1.12,2.578,2.578,0,0,0,.227,1.161,1.866,1.866,0,0,0,.578.7,2,2,0,0,0,.751.33,3.593,3.593,0,0,0,.724.082,4.227,4.227,0,0,0,1.8-.354,3.8,3.8,0,0,0,1.238-.9,3.646,3.646,0,0,0,.723-1.219,4.669,4.669,0,0,0,.269-1.309,2,2,0,0,0-.16-.917,2.187,2.187,0,0,0-.408-.606m-1.166,2.653a3.372,3.372,0,0,1-.687.934,3.248,3.248,0,0,1-.885.6,2.153,2.153,0,0,1-.878.213.471.471,0,0,1-.463-.226,1.379,1.379,0,0,1-.138-.647,2.953,2.953,0,0,1,.208-1,4.683,4.683,0,0,1,.552-1.059,3.6,3.6,0,0,1,.78-.819A1.446,1.446,0,0,1,122,72.1a.779.779,0,0,1,.376.09,1,1,0,0,1,.3.25,1.207,1.207,0,0,1,.2.365.97.97,0,0,1,.058.4,2.993,2.993,0,0,1-.307,1.224m.2-3.726a7.145,7.145,0,0,1-1.952.7q.182-.439.433-1.044c.207-.5.408-1.013.6-1.519s.357-.99.495-1.426a3.69,3.69,0,0,0,.212-.992,1.55,1.55,0,0,0-.1-.578,1.687,1.687,0,0,0-.2-.369c-.017-.022-.035-.043-.052-.062.1-.006.2-.009.3-.009a3.793,3.793,0,0,1,.939.11,3.486,3.486,0,0,1,.554.208,1.461,1.461,0,0,1,.465.347,1.806,1.806,0,0,1,.329.547,2.126,2.126,0,0,1,.127.779,3.464,3.464,0,0,1-.184,1.165,3.515,3.515,0,0,1-.485.919,3.717,3.717,0,0,1-.688.7,5.7,5.7,0,0,1-.8.524" transform="translate(-39.008 -21.663)" fill="#6b702b"/>
      <path id="Tracé_278" data-name="Tracé 278" d="M132.2,70.682a.5.5,0,0,0,.239.225.68.68,0,0,0,.269.057.653.653,0,0,0,.311-.094,1.247,1.247,0,0,0,.3-.237,2.462,2.462,0,0,0,.251-.318,1.283,1.283,0,0,0,.176-.4.963.963,0,0,0-.095-.8.709.709,0,0,0-.624-.348.95.95,0,0,0-.4.09l-.009,0a1.092,1.092,0,0,0-.313.276,1.119,1.119,0,0,0-.208.542,2.235,2.235,0,0,0-.016.608,1.113,1.113,0,0,0,.118.391" transform="translate(-44.379 -23.108)" fill="#6b702b"/>
      <path id="Tracé_279" data-name="Tracé 279" d="M139.264,75.481a.115.115,0,0,0-.066-.021l-.023,0a.113.113,0,0,0-.074.052,2.851,2.851,0,0,1-.88.944,1.055,1.055,0,0,1-.541.175.666.666,0,0,1-.136-.013,4.7,4.7,0,0,0,.446-2,4.015,4.015,0,0,0-.03-.478,5.425,5.425,0,0,1-.971.346c0,.033,0,.062,0,.095a3.372,3.372,0,0,1-.108.838,4.464,4.464,0,0,1-.264.747.462.462,0,0,0-.368.229.477.477,0,0,0-.046.441,1.879,1.879,0,0,1-.481.41,1.21,1.21,0,0,1-.612.159.546.546,0,0,1-.4-.216,1.123,1.123,0,0,1-.217-.736,5.012,5.012,0,0,1,.131-1.3,3.878,3.878,0,0,1,.41-1.05,2.286,2.286,0,0,1,.554-.647l-.014-.006a4.908,4.908,0,0,1-.929-.511,3.777,3.777,0,0,0-.514.455,4.588,4.588,0,0,0-1.1,2.193,4.98,4.98,0,0,1-.336.573,4.9,4.9,0,0,1-.49.616,2.828,2.828,0,0,1-.559.459,1.059,1.059,0,0,1-.554.174c-.122,0-.152-.045-.169-.094a1.1,1.1,0,0,1-.05-.332,2.145,2.145,0,0,1,.169-.59c.116-.313.256-.671.414-1.066s.332-.816.509-1.234.338-.815.465-1.153a.271.271,0,0,0-.05-.272.3.3,0,0,0-.234-.124h-1.355a.117.117,0,0,0-.116.132c.01.075.021.149.033.224a1.205,1.205,0,0,1-.06.493c-.021.072-.068.2-.141.39s-.165.412-.269.659-.216.524-.329.817-.217.58-.312.848-.176.524-.24.749a2.1,2.1,0,0,0-.1.558,1.19,1.19,0,0,0,.374.94,1.224,1.224,0,0,0,.826.324,1.817,1.817,0,0,0,.971-.3,4.09,4.09,0,0,0,.854-.722,6.464,6.464,0,0,0,.656-.869,2.48,2.48,0,0,0,.088.505,1.943,1.943,0,0,0,.364.7,1.878,1.878,0,0,0,.595.475,1.682,1.682,0,0,0,.779.181,2.579,2.579,0,0,0,1.376-.376,3.411,3.411,0,0,0,.992-.941c.072.007.143.011.212.011a2.046,2.046,0,0,0,.976-.246,3.489,3.489,0,0,0,1.184-1.31.116.116,0,0,0-.033-.156Z" transform="translate(-43.433 -24.376)" fill="#6b702b"/>
      <path id="Tracé_280" data-name="Tracé 280" d="M138.535,66.939a6.807,6.807,0,0,0-2.389-1.7s-1.581,3.755,1.86,5.2a7.449,7.449,0,0,0-1.508-3.884,4.273,4.273,0,0,1,1.4,2.028,3.537,3.537,0,0,1,.636-1.641" transform="translate(-45.626 -21.921)" fill="#6b702b"/>
      <path id="Tracé_281" data-name="Tracé 281" d="M143.687,64.273s1.07,5.762-3.467,6.858c0,0,.574-3.313,1.789-4.8,0,0-1.415,1.2-2.188,4.576,0,0-2.372-4.967,3.867-6.638" transform="translate(-46.834 -21.597)" fill="#6b702b"/>
    </g>
  </g>
</svg>
